# xmcd
#
# Track frame offsets: 
#        150
#        17737
#        33187
#        53174
#        74211
#        88348
#        113398
#        133048
#
# Disc length: 2111 seconds
#
# Revision: 0
# Processed by: cddbd v1.5.2PL0 Copyright (c) Steve Scherf et al.
# Submitted via: ExactAudioCopyFreeDBPlugin 1.0
#
DISCID=6a083d08
DTITLE=Jackson Emmer - Last Known Photograph of Jackson Emmer
DYEAR=2015
DGENRE=Americana
TTITLE0=Hands
TTITLE1=Six Four Time
TTITLE2=Score
TTITLE3=Rock the Simple Cradle
TTITLE4=Living on the Cheap
TTITLE5=Glow
TTITLE6=Rocky Winds Blow
TTITLE7=Texas Last
EXTD=
EXTT0=
EXTT1=
EXTT2=
EXTT3=
EXTT4=
EXTT5=
EXTT6=
EXTT7=
PLAYORDER=
